# xmcd CD database file
#
# Track frame offsets:
#	150
#	7085
#	32672
#	49315
#	67490
#	83485
#	97575
#	114785
#	141317
#	168577
#	190415
#	216760
#	229770
#	249565
#	251950
#
# Disc length: 3603 seconds
#
# Revision: 0
# Processed by: cddbd v1.5PL3 Copyright (c) Steve Scherf et al.
# Submitted via: CDex 1.51
#
DISCID=d30e110f
DTITLE=メトロファルス - Can Do
DYEAR=1900
DGENRE=Rock
TTITLE0=PAST FUTURE ANIMATORS STAND ON GAIA
TTITLE1=ダモクレスの剣（remix Version）
TTITLE2=SLY BOOTS
TTITLE3=Channel Love
TTITLE4=なけなしスラップスティック・ラブ
TTITLE5=はがまがCity
TTITLE6=Lost Horizon
TTITLE7=HARVEST MOON
TTITLE8=梟たちの夜
TTITLE9=ONION HEADS
TTITLE10=僕のジャイロスコオプ
TTITLE11=カメレオンマン（remix Version）
TTITLE12=ベロ出し天使
TTITLE13=真夏の幻日（Special mix）
TTITLE14=PAST FUTURE ANIMATORS STAND AGAIN
EXTD=
EXTT0=
EXTT1=
EXTT2=
EXTT3=
EXTT4=
EXTT5=
EXTT6=
EXTT7=
EXTT8=
EXTT9=
EXTT10=
EXTT11=
EXTT12=
EXTT13=
EXTT14=
PLAYORDER=
